<svg id="Capa_1" enable-background="new 0 0 511.963 511.963" height="512" viewBox="0 0 511.963 511.963" width="512" xmlns="http://www.w3.org/2000/svg"><g><g><path d="m495.643 430.977c-2.17 20-18.19 35.67-38.23 37.25-134.288 10.59-268.567 10.59-402.856 0-20.04-1.58-36.06-17.25-38.23-37.25-9.05-83.429-11.15-166.848-6.3-250.277.8-13.97 1.8-27.94 3.01-41.91.97-11.3 2.06-22.59 3.29-33.88 2.17-19.99 18.19-35.67 38.23-37.25 134.288-10.58 268.567-10.58 402.856 0 20.04 1.58 36.06 17.26 38.23 37.25 1.23 11.29 2.32 22.58 3.29 33.88 1.21 13.97 2.21 27.94 3.01 41.91 4.85 83.428 2.75 166.847-6.3 250.277z" fill="#f9f6f9"/><path d="m501.943 180.699h-491.915c.8-13.97 1.8-27.94 3.01-41.91h485.895c1.21 13.971 2.21 27.94 3.01 41.91z" fill="#dfeaef"/><path d="m500.927 164.702h-489.885c1.36-19.93 3.12-39.859 5.28-59.78 2.17-20 18.19-35.679 38.239-37.259 134.279-10.58 268.567-10.58 402.846 0 20.05 1.58 36.07 17.26 38.23 37.259 2.161 19.921 3.92 39.85 5.29 59.78z" fill="#da4a54"/><g fill="#f1d333"><path d="m110.243 119.508c-11.754 0-21.282-9.528-21.282-21.282v-41.113c0-11.754 9.528-21.282 21.282-21.282 11.754 0 21.282 9.528 21.282 21.282v41.112c.001 11.754-9.528 21.283-21.282 21.283z"/><path d="m401.727 119.508c-11.754 0-21.282-9.528-21.282-21.282v-41.113c0-11.754 9.528-21.282 21.282-21.282 11.754 0 21.282 9.528 21.282 21.282v41.112c.001 11.754-9.528 21.283-21.282 21.283z"/></g><g fill="#e7a52e"><path d="m117.931 118.075c-2.38.92-4.98 1.43-7.69 1.43-11.75 0-21.28-9.53-21.28-21.28v-41.12c0-11.75 9.53-21.28 21.28-21.28 2.71 0 5.31.51 7.69 1.43-7.95 3.08-13.6 10.81-13.6 19.85v41.12c0 9.04 5.65 16.77 13.6 19.85z"/><path d="m409.411 118.075c-2.38.92-4.97 1.43-7.68 1.43-11.76 0-21.29-9.53-21.29-21.28v-41.12c0-11.75 9.53-21.28 21.29-21.28 2.71 0 5.3.51 7.68 1.43-7.95 3.08-13.6 10.81-13.6 19.85v41.12c0 9.04 5.65 16.77 13.6 19.85z"/></g></g><g><path d="m91.681 383.345c4.142 0 7.5-3.358 7.5-7.5v-136.146c0-4.142-3.358-7.5-7.5-7.5h-29.1c-4.142 0-7.5 3.358-7.5 7.5s3.358 7.5 7.5 7.5h21.6v128.646c0 4.142 3.357 7.5 7.5 7.5z"/><path d="m221.009 278.832c.057-.245.102-.493.133-.743l.673-5.266c.041-.315.061-.633.061-.951 0-23.345-18.993-42.337-42.337-42.337-20.187 0-37.658 14.358-41.543 34.14-.798 4.064 1.85 8.006 5.914 8.805 4.066.795 8.007-1.85 8.805-5.914 2.507-12.765 13.788-22.03 26.824-22.03 14.924 0 27.093 12.02 27.334 26.888l-.56 4.374c-1.875 7.785-6.324 16.731-13.229 26.598-21.66 30.947-34.594 47.883-41.542 56.981-8.035 10.521-9.944 13.021-8.513 17.674.783 2.545 2.739 4.508 5.368 5.384 1.008.336 2.795.932 28.516.932 10.199 0 24.161-.094 43.329-.334 4.142-.052 7.457-3.452 7.405-7.594s-3.446-7.475-7.594-7.405c-20.615.26-43.142.392-56.455.271 7.047-9.227 20.077-26.305 41.775-57.308 8.116-11.598 13.377-22.419 15.636-32.165z"/><path d="m509.433 180.27c-.807-14.088-1.825-28.262-3.025-42.123-.995-11.583-2.107-23.04-3.307-34.047-2.561-23.589-21.526-42.059-45.099-43.918-9.26-.727-18.472-1.401-27.493-2.016v-1.052c0-15.871-12.912-28.783-28.783-28.783-15.129 0-27.561 11.737-28.69 26.582-77.716-3.545-156.388-3.545-234.104 0-1.129-14.845-13.56-26.582-28.69-26.582-15.871 0-28.783 12.912-28.783 28.783v1.052c-9.02.615-18.233 1.289-27.495 2.017-23.569 1.857-42.534 20.327-45.095 43.913-1.199 11.011-2.312 22.467-3.306 34.045-1.201 13.866-2.219 28.04-3.025 42.122-3.859 66.33-3.315 133.62 1.618 200.001.293 3.942 3.582 6.945 7.472 6.945.187 0 .375-.007.563-.021 4.131-.307 7.23-3.905 6.924-8.035-4.884-65.724-5.423-132.347-1.602-198.025.17-2.973.355-5.95.544-8.927h394.317c4.142 0 7.5-3.358 7.5-7.5s-3.358-7.5-7.5-7.5h-393.284c.44-5.956.909-11.894 1.418-17.77.985-11.47 2.086-22.811 3.273-33.712 1.783-16.429 14.974-29.291 31.361-30.583 8.859-.695 17.677-1.344 26.319-1.937v25.026c0 15.871 12.912 28.783 28.783 28.783s28.782-12.912 28.782-28.783v-28.301c77.652-3.56 156.267-3.56 233.919 0v28.301c0 15.871 12.912 28.783 28.783 28.783s28.782-12.912 28.782-28.783v-25.026c8.642.593 17.46 1.241 26.316 1.936 16.39 1.292 29.58 14.154 31.363 30.586 1.188 10.898 2.289 22.239 3.274 33.714.509 5.874.977 11.809 1.417 17.765h-46.217c-4.142 0-7.5 3.358-7.5 7.5s3.358 7.5 7.5 7.5h47.25c.189 2.979.374 5.958.544 8.934 4.803 82.621 2.694 166.408-6.269 249.035-1.783 16.428-14.973 29.29-31.363 30.582-133.269 10.51-268.413 10.51-401.682 0-16.391-1.292-29.581-14.154-31.363-30.581-.792-7.312-1.521-14.544-2.168-21.497-.384-4.125-4.046-7.155-8.163-6.773-4.125.384-7.157 4.038-6.773 8.163.654 7.028 1.391 14.336 2.191 21.724 2.559 23.589 21.525 42.059 45.096 43.917 67.025 5.286 134.523 7.928 202.02 7.928s134.995-2.643 202.02-7.928c23.572-1.858 42.538-20.329 45.097-43.918 9.054-83.45 11.184-168.075 6.333-251.516zm-385.407-82.045c0 7.6-6.183 13.783-13.782 13.783s-13.783-6.183-13.783-13.783v-41.112c0-7.6 6.183-13.783 13.783-13.783s13.782 6.183 13.782 13.783zm291.484 0c0 7.6-6.183 13.783-13.782 13.783-7.6 0-13.782-6.183-13.782-13.783v-41.112c0-7.6 6.183-13.783 13.783-13.783s13.782 6.183 13.782 13.783v41.112z"/><path d="m289.259 243.863h151.639c4.142 0 7.5-3.358 7.5-7.5s-3.358-7.5-7.5-7.5h-151.639c-4.142 0-7.5 3.358-7.5 7.5s3.358 7.5 7.5 7.5z"/><path d="m289.259 281.44h151.639c4.142 0 7.5-3.358 7.5-7.5s-3.358-7.5-7.5-7.5h-151.639c-4.142 0-7.5 3.358-7.5 7.5s3.358 7.5 7.5 7.5z"/><path d="m289.259 319.018h151.639c4.142 0 7.5-3.358 7.5-7.5s-3.358-7.5-7.5-7.5h-151.639c-4.142 0-7.5 3.358-7.5 7.5s3.358 7.5 7.5 7.5z"/><path d="m289.259 356.595h151.639c4.142 0 7.5-3.358 7.5-7.5s-3.358-7.5-7.5-7.5h-151.639c-4.142 0-7.5 3.358-7.5 7.5s3.358 7.5 7.5 7.5z"/><path d="m289.259 394.172h151.639c4.142 0 7.5-3.358 7.5-7.5s-3.358-7.5-7.5-7.5h-151.639c-4.142 0-7.5 3.358-7.5 7.5s3.358 7.5 7.5 7.5z"/></g></g></svg>